<svg width="47" height="713" viewBox="0 0 47 713" fill="none" xmlns="http://www.w3.org/2000/svg">
<g filter="url(#filter0_dd)">
<path fill-rule="evenodd" clip-rule="evenodd" d="M23.5 379C31.5081 379 38 372.508 38 364.5C38 356.492 31.5081 350 23.5 350C15.4919 350 9 356.492 9 364.5C9 372.508 15.4919 379 23.5 379ZM23.5 384C34.2696 384 43 375.27 43 364.5C43 353.73 34.2696 345 23.5 345C12.7304 345 4 353.73 4 364.5C4 375.27 12.7304 384 23.5 384Z" fill="white"/>
<path d="M21 0H26V346H21V0Z" fill="white"/>
<path d="M21 382H26V705H21V382Z" fill="white"/>
</g>
<defs>
<filter id="filter0_dd" x="0" y="0" width="47" height="713" filterUnits="userSpaceOnUse" color-interpolation-filters="sRGB">
<feFlood flood-opacity="0" result="BackgroundImageFix"/>
<feColorMatrix in="SourceAlpha" type="matrix" values="0 0 0 0 0 0 0 0 0 0 0 0 0 0 0 0 0 0 127 0" result="hardAlpha"/>
<feOffset dy="4"/>
<feGaussianBlur stdDeviation="2"/>
<feComposite in2="hardAlpha" operator="out"/>
<feColorMatrix type="matrix" values="0 0 0 0 0 0 0 0 0 0 0 0 0 0 0 0 0 0 0.25 0"/>
<feBlend mode="normal" in2="BackgroundImageFix" result="effect1_dropShadow"/>
<feColorMatrix in="SourceAlpha" type="matrix" values="0 0 0 0 0 0 0 0 0 0 0 0 0 0 0 0 0 0 127 0" result="hardAlpha"/>
<feOffset dy="4"/>
<feGaussianBlur stdDeviation="2"/>
<feComposite in2="hardAlpha" operator="out"/>
<feColorMatrix type="matrix" values="0 0 0 0 0 0 0 0 0 0 0 0 0 0 0 0 0 0 0.25 0"/>
<feBlend mode="normal" in2="effect1_dropShadow" result="effect2_dropShadow"/>
<feBlend mode="normal" in="SourceGraphic" in2="effect2_dropShadow" result="shape"/>
</filter>
</defs>
</svg>
