<svg width="3556" height="10679" viewBox="0 0 3556 10679" fill="none" xmlns="http://www.w3.org/2000/svg">
<g filter="url(#filter0_d)">
<rect x="4" width="3548" height="10671" rx="100" fill="#DBDBDB"/>
<path d="M1352.9 406H1325.66V225.385L1271.02 245.453V220.844L1348.65 191.693H1352.9V406ZM1581.04 315.033C1581.04 346.771 1575.62 370.355 1564.78 385.785C1553.94 401.215 1536.99 408.93 1513.95 408.93C1491.19 408.93 1474.35 401.41 1463.41 386.371C1452.47 371.234 1446.81 348.676 1446.42 318.695V282.514C1446.42 251.166 1451.84 227.875 1462.68 212.641C1473.52 197.406 1490.51 189.789 1513.65 189.789C1536.6 189.789 1553.5 197.162 1564.34 211.908C1575.18 226.557 1580.74 249.213 1581.04 279.877V315.033ZM1553.94 277.973C1553.94 255.023 1550.71 238.324 1544.27 227.875C1537.82 217.328 1527.62 212.055 1513.65 212.055C1499.79 212.055 1489.68 217.279 1483.33 227.729C1476.98 238.178 1473.71 254.242 1473.52 275.922V319.281C1473.52 342.328 1476.84 359.369 1483.48 370.404C1490.22 381.342 1500.37 386.811 1513.95 386.811C1527.33 386.811 1537.24 381.635 1543.68 371.283C1550.23 360.932 1553.64 344.623 1553.94 322.357V277.973ZM1770.5 406H1630.75V386.518L1704.58 304.486C1715.52 292.084 1723.04 282.025 1727.14 274.311C1731.34 266.498 1733.44 258.441 1733.44 250.141C1733.44 239.008 1730.07 229.877 1723.33 222.748C1716.59 215.619 1707.61 212.055 1696.38 212.055C1682.9 212.055 1672.4 215.912 1664.88 223.627C1657.46 231.244 1653.75 241.889 1653.75 255.561H1626.65C1626.65 235.932 1632.95 220.062 1645.55 207.953C1658.24 195.844 1675.19 189.789 1696.38 189.789C1716.2 189.789 1731.88 195.014 1743.4 205.463C1754.92 215.814 1760.69 229.633 1760.69 246.918C1760.69 267.914 1747.31 292.914 1720.55 321.918L1663.42 383.881H1770.5V406ZM1928.62 334.369H1958.21V356.488H1928.62V406H1901.37V356.488H1804.25V340.521L1899.76 192.719H1928.62V334.369ZM1835.01 334.369H1901.37V229.779L1898.15 235.639L1835.01 334.369ZM2134.34 328.51C2134.34 352.631 2128.82 372.064 2117.79 386.811C2106.75 401.557 2091.81 408.93 2072.96 408.93C2053.72 408.93 2038.59 402.826 2027.55 390.619V466.938H2000.45V247.504H2025.21L2026.53 265.082C2037.56 251.41 2052.89 244.574 2072.52 244.574C2091.56 244.574 2106.6 251.752 2117.64 266.107C2128.77 280.463 2134.34 300.434 2134.34 326.02V328.51ZM2107.24 325.434C2107.24 307.562 2103.43 293.451 2095.81 283.1C2088.2 272.748 2077.75 267.572 2064.46 267.572C2048.06 267.572 2035.75 274.848 2027.55 289.398V365.131C2035.66 379.584 2048.06 386.811 2064.76 386.811C2077.75 386.811 2088.05 381.684 2095.67 371.43C2103.38 361.078 2107.24 345.746 2107.24 325.434ZM2234.74 305.365L2269.89 247.504H2301.54L2249.68 325.873L2303.15 406H2271.8L2235.18 346.674L2198.56 406H2167.06L2220.53 325.873L2168.67 247.504H2200.02L2234.74 305.365Z" fill="white"/>
</g>
<defs>
<filter id="filter0_d" x="0" y="0" width="3556" height="10679" filterUnits="userSpaceOnUse" color-interpolation-filters="sRGB">
<feFlood flood-opacity="0" result="BackgroundImageFix"/>
<feColorMatrix in="SourceAlpha" type="matrix" values="0 0 0 0 0 0 0 0 0 0 0 0 0 0 0 0 0 0 127 0" result="hardAlpha"/>
<feOffset dy="4"/>
<feGaussianBlur stdDeviation="2"/>
<feComposite in2="hardAlpha" operator="out"/>
<feColorMatrix type="matrix" values="0 0 0 0 0 0 0 0 0 0 0 0 0 0 0 0 0 0 0.25 0"/>
<feBlend mode="normal" in2="BackgroundImageFix" result="effect1_dropShadow"/>
<feBlend mode="normal" in="SourceGraphic" in2="effect1_dropShadow" result="shape"/>
</filter>
</defs>
</svg>
